<svg width="284" height="284" xmlns="http://www.w3.org/2000/svg" xml:space="preserve" enable-background="new 0 0 1200 400" version="1.1">

 <g>
  <title>Layer 1</title>
  <g id="svg_25">
   <path id="svg_26" d="m247.199,46.541c1.529,1.682 3.017,3.4 4.465,5.154c-1.448,-1.754 -2.936,-3.473 -4.465,-5.154z"/>
   <path id="svg_27" d="m224.282,26.209c1.857,1.32 3.68,2.684 5.469,4.09c-1.789,-1.406 -3.613,-2.77 -5.469,-4.09z"/>
   <path id="svg_28" d="m229.751,30.299c1.789,1.406 3.543,2.854 5.261,4.342c-1.718,-1.488 -3.472,-2.936 -5.261,-4.342z"/>
   <path id="svg_29" d="m209.76,17.146c2.013,1.093 3.996,2.234 5.949,3.42c-1.953,-1.186 -3.936,-2.327 -5.949,-3.42z"/>
   <path id="svg_30" d="m197.343,11.164c3.186,1.348 6.314,2.809 9.376,4.377c-3.063,-1.568 -6.19,-3.029 -9.376,-4.377z"/>
   <path id="svg_31" d="m244.877,44.046c-1.568,-1.645 -3.175,-3.252 -4.82,-4.82c1.645,1.568 3.252,3.175 4.82,4.82z"/>
   <path id="svg_32" d="m170.678,2.887c2.312,0.473 4.603,1.002 6.872,1.586c-2.268,-0.584 -4.56,-1.113 -6.872,-1.586z"/>
   <path id="svg_33" d="m240.057,244.88c1.645,-1.568 3.252,-3.175 4.82,-4.82c-1.568,1.645 -3.175,3.252 -4.82,4.82z"/>
   <path id="svg_34" d="m263.536,68.394c1.186,1.952 2.327,3.936 3.42,5.949c-1.093,-2.013 -2.233,-3.997 -3.42,-5.949z"/>
   <path id="svg_35" d="m271.553,83.593c0.948,2.097 1.847,4.222 2.695,6.373c-0.847,-2.151 -1.746,-4.275 -2.695,-6.373z"/>
   <path id="svg_36" d="m274.249,194.139c-0.848,2.15 -1.747,4.275 -2.695,6.373c0.948,-2.098 1.847,-4.223 2.695,-6.373z"/>
   <path id="svg_37" d="m251.664,232.411c-1.448,1.754 -2.936,3.473 -4.465,5.154c1.529,-1.682 3.017,-3.4 4.465,-5.154z"/>
   <path id="svg_38" d="m235.012,249.465c-1.718,1.488 -3.473,2.936 -5.261,4.342c1.789,-1.406 3.543,-2.854 5.261,-4.342z"/>
   <path id="svg_39" d="m266.957,209.763c-1.093,2.013 -2.234,3.996 -3.42,5.949c1.186,-1.953 2.326,-3.937 3.42,-5.949z"/>
   <path id="svg_40" d="m163.683,1.638c2.351,0.359 4.683,0.776 6.995,1.249c-2.311,-0.473 -4.644,-0.89 -6.995,-1.249z"/>
   <path id="svg_41" d="m229.751,253.807c-1.789,1.406 -3.612,2.77 -5.469,4.09c1.856,-1.32 3.68,-2.684 5.469,-4.09z"/>
   <path id="svg_42" d="m215.709,263.539c-1.953,1.186 -3.936,2.327 -5.949,3.42c2.013,-1.092 3.996,-2.233 5.949,-3.42z"/>
   <path id="svg_43" d="m170.678,281.219c-2.312,0.473 -4.644,0.89 -6.995,1.249c2.351,-0.359 4.684,-0.776 6.995,-1.249z"/>
   <path id="svg_44" d="m177.551,279.633c-2.269,0.584 -4.561,1.113 -6.872,1.586c2.311,-0.473 4.603,-1.002 6.872,-1.586z"/>
   <path id="svg_45" d="m206.719,268.564c-3.063,1.569 -6.19,3.029 -9.376,4.377c3.186,-1.347 6.313,-2.808 9.376,-4.377z"/>
   <path id="svg_46" d="m274.249,89.966c-0.848,-2.15 -1.747,-4.275 -2.695,-6.373c-1.423,-3.146 -2.956,-6.232 -4.597,-9.251c-1.093,-2.013 -2.234,-3.996 -3.42,-5.949c-3.559,-5.858 -7.53,-11.437 -11.873,-16.699c-1.448,-1.754 -2.936,-3.472 -4.465,-5.154c-0.764,-0.841 -1.539,-1.673 -2.323,-2.495c-1.568,-1.645 -3.175,-3.252 -4.82,-4.82c-1.645,-1.568 -3.327,-3.097 -5.045,-4.585c-1.718,-1.488 -3.473,-2.936 -5.261,-4.342c-1.789,-1.406 -3.612,-2.77 -5.469,-4.09c-2.785,-1.98 -5.644,-3.863 -8.573,-5.643c-1.953,-1.186 -3.936,-2.327 -5.949,-3.42c-1.006,-0.547 -2.02,-1.082 -3.041,-1.605c-3.063,-1.569 -6.19,-3.029 -9.376,-4.377c-6.373,-2.696 -12.984,-4.939 -19.792,-6.691c-2.269,-0.584 -4.561,-1.113 -6.872,-1.586c-2.312,-0.473 -4.644,-0.89 -6.995,-1.249c-7.054,-1.078 -14.278,-1.637 -21.633,-1.637c-78.45,0 -142.05,63.601 -142.05,142.05c0,78.456 63.6,142.054 142.05,142.054c7.355,0 14.579,-0.559 21.633,-1.637c2.351,-0.359 4.683,-0.776 6.995,-1.249c2.312,-0.473 4.603,-1.002 6.872,-1.586c6.808,-1.752 13.419,-3.995 19.792,-6.691c3.186,-1.348 6.314,-2.809 9.376,-4.377c1.021,-0.523 2.035,-1.058 3.041,-1.604c2.013,-1.093 3.996,-2.234 5.949,-3.42c2.929,-1.78 5.788,-3.662 8.573,-5.643c1.857,-1.32 3.68,-2.684 5.469,-4.09c1.789,-1.406 3.543,-2.854 5.261,-4.342c1.718,-1.488 3.4,-3.017 5.045,-4.585c1.645,-1.568 3.252,-3.175 4.82,-4.82c0.784,-0.822 1.558,-1.654 2.323,-2.495c1.529,-1.682 3.017,-3.4 4.465,-5.154c4.342,-5.262 8.313,-10.842 11.873,-16.699c1.186,-1.953 2.327,-3.936 3.42,-5.949c1.64,-3.019 3.174,-6.105 4.597,-9.251c0.948,-2.098 1.847,-4.222 2.695,-6.373c6.36,-16.128 9.853,-33.7 9.853,-52.088c0,-18.387 -3.494,-35.958 -9.853,-52.085zm-35.996,148.29c-25.697,25.697 -59.862,39.849 -96.202,39.849c-36.34,0 -70.505,-14.152 -96.201,-39.849c-25.697,-25.697 -39.849,-59.864 -39.849,-96.206c0,-36.339 14.152,-70.504 39.849,-96.201c25.697,-25.697 59.862,-39.849 96.201,-39.849c36.34,0 70.505,14.152 96.202,39.849c25.697,25.697 39.849,59.862 39.849,96.201c0,36.342 -14.152,70.509 -39.849,96.206z"/>
   <path id="svg_47" d="m147.885,122.731c0,0 0.519,-5.875 5.01,-12.425c5.455,-7.957 4.442,-20.333 4.442,-20.333s-1.712,12.177 -4.415,15.685c-6.121,7.944 -5.037,17.073 -5.037,17.073z"/>
   <path id="svg_48" d="m142.006,89.972c7.277,-17.457 -1.077,-22.052 -3.174,-23.673c0,0 3.174,4.54 4.12,8.972c1.285,6.021 -0.946,14.701 -0.946,14.701z"/>
   <path id="svg_49" d="m127.111,110.004c-5.729,1.912 -15.015,4.864 -15.015,4.864s8.853,7.863 34.436,9.37c0,0.001 -13.692,-16.146 -19.421,-14.234z"/>
   <path id="svg_50" d="m144.267,115.81c0,0 3.132,-8.363 8.527,-18.055c4.142,-7.441 -1.578,-21.511 -1.578,-21.511s2.165,14.68 -0.461,20.279c-5.472,11.664 -6.488,19.287 -6.488,19.287z"/>
   <path id="svg_51" d="m145.408,96.92c7.55,-11.92 1.124,-26.027 1.124,-26.027s1.572,11.507 0.45,16.701c-1.122,5.194 -7.332,12.971 -9.025,25.368c0,0 2.882,-8.828 7.451,-16.042z"/>
   <path id="svg_52" d="m137.353,76.244c0.895,12.53 -6.688,29.997 -6.688,29.997s31.469,-45.779 -22.254,-52.48c-0.001,-0.001 27.672,4.701 28.942,22.483z"/>
   <path id="svg_53" d="m155.108,177.098c0,0 -8.432,-2.27 -12.485,-4.002c-4.054,-1.732 -6.972,-4.591 -6.972,-4.591c4.702,12.322 19.457,8.593 19.457,8.593z"/>
   <path id="svg_54" d="m125.76,209.851c0,0 -0.649,-4.378 -3.243,-11.836s-7.134,-13.296 -7.134,-13.296c5.188,20.267 10.377,25.132 10.377,25.132z"/>
   <path id="svg_55" d="m141.325,194.123c0,0 -4.929,-2.351 -8.64,-6.055c-4.493,-4.485 -6.277,-10.095 -6.277,-10.095c0,16.604 14.917,16.15 14.917,16.15z"/>
   <path id="svg_56" d="m98.195,80.648c11.999,11.279 10.193,29.2 10.193,29.2s2.942,-7.347 0.022,-17.18c-1.918,-6.457 -10.215,-12.02 -10.215,-12.02z"/>
   <path id="svg_57" d="m75.495,115.24c4.378,4.297 7.945,13.539 7.945,13.539s-1.352,-8.421 -4.968,-15.32c-3.616,-6.899 -20.315,-16.473 -22.434,-18.081c-2.119,-1.609 -9.404,-4.459 -9.404,-4.459c15.89,10.295 24.483,20.024 28.861,24.321z"/>
   <path id="svg_58" d="m106.302,186.718c0,0 -2.232,6.699 -1.583,15.133c0.649,8.432 6.123,13.836 6.123,13.836s-5.188,-8.809 -4.54,-28.969z"/>
   <path id="svg_59" d="m225.802,103.728c0,0 -3.845,2.767 -9.134,3.973c-6.178,1.408 -15.026,11.411 -15.026,11.411s9.351,-6.488 17.593,-8.161c5.432,-1.104 6.567,-7.223 6.567,-7.223z"/>
   <path id="svg_60" d="m128.946,142.318c5.198,-5.876 9.974,-6.511 9.409,-2.24c-1.002,7.575 -9.731,11.402 -3.461,20.319c0,0 -1.393,-5.305 1.651,-9.405c3.525,-4.748 7.393,-9.404 4.952,-13.782s-6.169,-5 -9.9,-1.54c-3.731,3.46 -11.594,11.93 -3.243,29.104c0,0 -4.606,-16.58 0.592,-22.456z"/>
   <path id="svg_61" d="m124.651,68.137c12.297,13.917 -0.534,37.52 -0.534,37.52c11.815,-16.852 11.209,-33.197 -0.574,-43.249s-39.451,-5.933 -39.451,-5.933s28.508,-1.976 40.559,11.662z"/>
   <path id="svg_62" d="m66.016,212.985c0,0 17.316,-7.999 17.262,-32.321c0,0 -0.447,7.781 -5.189,15.457c-4.742,7.678 -12.073,16.864 -12.073,16.864z"/>
   <path id="svg_63" d="m217.84,122.397c3.284,-1.039 5.302,-2.67 5.302,-2.67s-4.257,0.509 -4.257,-3.367c0,0 -1.266,4.579 -11.118,7.85c0,0 2.388,1.579 4.982,2.628c2.389,0.966 4.299,1.915 5.983,1.915c0,0 -2.242,-0.635 -2.008,-2.461c0,0 -0.032,0.004 -0.085,0.01c0.452,-0.37 0.89,-1.316 1.095,-2.472c0.089,-0.513 0.122,-1.002 0.106,-1.433zm-3.926,3.691c-2.364,-0.588 -3.786,-1.798 -3.786,-1.798s3.396,-0.786 5.58,-1.321c-0.039,0.157 -0.074,0.318 -0.103,0.484c-0.235,1.325 -0.088,2.494 0.322,2.881c-0.512,-0.001 -1.227,-0.05 -2.013,-0.246z"/>
   <path id="svg_64" d="m243.289,148.722c-2.376,-1.606 -9.738,6.432 -12.622,6.108c-2.598,-0.292 -8.215,-7.999 0.054,-11.404c0,0 -7.65,0.913 -6.756,5.297c0.894,4.383 -0.14,14.179 -0.957,18.16c0,0 4.633,-6.988 3.768,-11.79c0,0 2.847,4.809 5.899,1.735c3.976,-4.005 14.372,-5.565 10.614,-8.106z"/>
   <path id="svg_65" d="m142.051,8.909c-73.529,0 -133.14,59.61 -133.14,133.141c0,73.533 59.611,133.147 133.14,133.147c73.53,0 133.145,-59.614 133.145,-133.147c-0.001,-73.53 -59.615,-133.141 -133.145,-133.141zm-83.321,206.425c-0.003,0 -0.005,0 -0.008,0c0.024,0 0.048,0 0.072,0c-0.021,-0.001 -0.042,0 -0.064,0zm0.482,-0.003c0.063,0 0.124,-0.001 0.186,-0.002c-0.062,0.001 -0.123,0.002 -0.186,0.002zm0.52,-0.006c0.124,-0.002 0.247,-0.003 0.368,-0.004c-0.121,0.001 -0.244,0.003 -0.368,0.004zm0.54,-0.006c0.146,-0.001 0.291,-0.002 0.433,-0.002c-0.142,0 -0.286,0.001 -0.433,0.002zm0.502,-0.002c0.127,0 0.253,0.001 0.377,0.003c-0.124,-0.002 -0.25,-0.003 -0.377,-0.003zm0.508,0.006c0.116,0.003 0.23,0.006 0.344,0.011c-0.114,-0.004 -0.228,-0.008 -0.344,-0.011zm0.441,0.015c0.14,0.007 0.278,0.016 0.415,0.028c-0.137,-0.011 -0.275,-0.02 -0.415,-0.028zm0.51,0.038c0.107,0.01 0.214,0.022 0.319,0.036c-0.105,-0.014 -0.212,-0.026 -0.319,-0.036zm0.438,0.052c0.119,0.017 0.238,0.037 0.355,0.06c-0.117,-0.023 -0.236,-0.043 -0.355,-0.06zm0.4,0.068c0.13,0.026 0.258,0.057 0.386,0.091c-0.128,-0.034 -0.256,-0.065 -0.386,-0.091zm0.491,0.121c0.098,0.028 0.195,0.059 0.291,0.092c-0.096,-0.033 -0.193,-0.063 -0.291,-0.092zm39.405,9.049c-0.086,0.021 -0.171,0.043 -0.257,0.061c-0.055,0.012 -0.11,0.029 -0.165,0.039c-0.094,0.017 -0.188,0.042 -0.281,0.055c-0.046,0.007 -0.092,0.036 -0.138,0.042c-0.139,0.017 -0.277,0.081 -0.416,0.081c-0.006,0 -0.012,0 -0.018,0c-0.133,0 -0.265,-0.031 -0.397,-0.03c-0.04,0 -0.079,-0.044 -0.119,-0.045c-0.106,-0.001 -0.213,-0.004 -0.319,-0.01c-0.051,-0.003 -0.102,-0.007 -0.153,-0.011c-0.096,-0.007 -0.191,-0.016 -0.286,-0.027c-0.051,-0.006 -0.103,-0.012 -0.154,-0.018c-0.101,-0.013 -0.203,-0.029 -0.303,-0.046c-0.042,-0.007 -0.084,-0.013 -0.126,-0.021c-0.142,-0.026 -0.283,-0.055 -0.423,-0.088c-0.02,-0.005 -0.039,-0.01 -0.059,-0.015c-0.122,-0.029 -0.243,-0.06 -0.363,-0.094c-0.047,-0.013 -0.093,-0.027 -0.14,-0.041c-0.095,-0.028 -0.19,-0.057 -0.284,-0.087c-0.05,-0.016 -0.099,-0.033 -0.149,-0.049c-0.094,-0.032 -0.188,-0.065 -0.282,-0.099c-0.045,-0.016 -0.09,-0.033 -0.135,-0.05c-0.119,-0.045 -0.238,-0.092 -0.357,-0.141c-0.017,-0.007 -0.034,-0.013 -0.051,-0.021c-0.137,-0.057 -0.272,-0.116 -0.408,-0.177c-0.038,-0.017 -0.075,-0.035 -0.113,-0.052c-0.098,-0.045 -0.196,-0.091 -0.293,-0.138c-0.046,-0.022 -0.091,-0.044 -0.136,-0.067c-0.092,-0.045 -0.183,-0.091 -0.274,-0.137c-0.043,-0.022 -0.086,-0.044 -0.129,-0.066c-0.102,-0.053 -0.204,-0.107 -0.305,-0.162c-0.029,-0.016 -0.058,-0.031 -0.087,-0.046c-0.131,-0.072 -0.262,-0.144 -0.392,-0.218c-0.019,-0.011 -0.039,-0.022 -0.058,-0.033c-0.11,-0.063 -0.22,-0.126 -0.33,-0.19c-0.038,-0.022 -0.075,-0.044 -0.112,-0.066c-0.093,-0.055 -0.186,-0.11 -0.278,-0.165c-0.036,-0.022 -0.073,-0.044 -0.109,-0.066c-0.101,-0.061 -0.201,-0.121 -0.3,-0.182c-0.024,-0.014 -0.047,-0.029 -0.071,-0.043c-0.424,-0.26 -0.836,-0.519 -1.238,-0.768c-0.052,-0.033 -0.105,-0.065 -0.157,-0.097c-0.061,-0.037 -0.122,-0.075 -0.182,-0.112c-0.064,-0.039 -0.128,-0.078 -0.191,-0.116c-0.049,-0.03 -0.099,-0.06 -0.148,-0.09c-0.106,-0.064 -0.212,-0.127 -0.316,-0.188c-0.038,-0.022 -0.075,-0.044 -0.113,-0.065c-0.072,-0.042 -0.144,-0.084 -0.216,-0.124c-0.043,-0.024 -0.085,-0.048 -0.127,-0.071c-0.066,-0.037 -0.132,-0.073 -0.198,-0.109c-0.043,-0.023 -0.085,-0.046 -0.127,-0.068c-0.068,-0.036 -0.136,-0.071 -0.203,-0.105c-0.037,-0.019 -0.074,-0.038 -0.11,-0.056c-0.101,-0.05 -0.201,-0.098 -0.3,-0.143c-0.016,-0.008 -0.033,-0.014 -0.049,-0.021c-0.084,-0.038 -0.167,-0.073 -0.249,-0.107c-0.034,-0.014 -0.068,-0.027 -0.102,-0.04c-0.064,-0.025 -0.128,-0.049 -0.191,-0.072c-0.036,-0.013 -0.072,-0.025 -0.108,-0.037c-0.063,-0.021 -0.125,-0.04 -0.186,-0.058c-0.033,-0.01 -0.066,-0.02 -0.099,-0.028c-0.075,-0.02 -0.148,-0.037 -0.221,-0.052c-0.018,-0.004 -0.036,-0.009 -0.054,-0.012c-0.09,-0.017 -0.178,-0.03 -0.265,-0.04c-0.025,-0.003 -0.049,-0.004 -0.074,-0.006c-0.063,-0.005 -0.125,-0.009 -0.186,-0.01c-0.013,0 -0.026,-0.002 -0.038,-0.002c-0.029,0 -0.057,0.002 -0.086,0.003c-0.024,0.001 -0.047,0.001 -0.071,0.003c-0.056,0.004 -0.111,0.01 -0.165,0.018c-0.012,0.002 -0.024,0.002 -0.036,0.004c-0.066,0.011 -0.13,0.025 -0.194,0.042c-0.019,0.005 -0.038,0.012 -0.057,0.018c-0.045,0.013 -0.089,0.028 -0.133,0.044c-0.023,0.009 -0.046,0.018 -0.068,0.028c-0.04,0.017 -0.08,0.035 -0.119,0.055c-0.022,0.011 -0.045,0.023 -0.067,0.036c-0.041,0.023 -0.081,0.048 -0.121,0.074c-0.019,0.012 -0.038,0.024 -0.056,0.037c-0.058,0.041 -0.115,0.084 -0.171,0.133c-0.237,0.205 -0.472,0.404 -0.706,0.598c-0.08,0.066 -0.158,0.127 -0.237,0.191c-0.154,0.125 -0.309,0.252 -0.463,0.372c-0.092,0.072 -0.183,0.139 -0.275,0.21c-0.139,0.107 -0.279,0.215 -0.418,0.318c-0.098,0.073 -0.195,0.14 -0.293,0.21c-0.131,0.094 -0.263,0.191 -0.394,0.281c-0.1,0.07 -0.2,0.134 -0.3,0.201c-0.127,0.085 -0.254,0.173 -0.381,0.254c-0.101,0.065 -0.202,0.126 -0.303,0.189c-0.124,0.077 -0.248,0.156 -0.371,0.23c-0.101,0.06 -0.202,0.115 -0.303,0.173c-0.122,0.07 -0.244,0.141 -0.365,0.207c-0.101,0.055 -0.201,0.105 -0.301,0.157c-0.12,0.063 -0.241,0.127 -0.36,0.186c-0.101,0.049 -0.201,0.094 -0.301,0.14c-0.118,0.055 -0.237,0.112 -0.354,0.163c-0.101,0.044 -0.201,0.083 -0.302,0.124c-0.116,0.047 -0.232,0.096 -0.347,0.14c-0.101,0.038 -0.202,0.071 -0.302,0.107c-0.114,0.04 -0.228,0.081 -0.341,0.117c-0.101,0.032 -0.201,0.059 -0.302,0.089c-0.112,0.032 -0.224,0.066 -0.335,0.095c-0.1,0.026 -0.2,0.047 -0.3,0.07c-0.111,0.025 -0.221,0.052 -0.331,0.073c-0.1,0.019 -0.199,0.034 -0.299,0.05c-0.109,0.018 -0.218,0.037 -0.327,0.051c-0.099,0.013 -0.198,0.021 -0.297,0.03c-0.108,0.01 -0.216,0.022 -0.323,0.029c-0.098,0.006 -0.196,0.007 -0.294,0.01c-0.083,0.002 -0.167,0.009 -0.25,0.009c-0.023,0 -0.045,-0.002 -0.068,-0.003c-0.106,-0.001 -0.212,-0.007 -0.317,-0.012c-0.1,-0.005 -0.2,-0.008 -0.299,-0.016c-0.106,-0.009 -0.21,-0.022 -0.316,-0.035c-0.098,-0.012 -0.197,-0.022 -0.295,-0.037c-0.105,-0.016 -0.209,-0.038 -0.314,-0.059c-0.097,-0.019 -0.195,-0.036 -0.292,-0.059c-0.104,-0.024 -0.207,-0.055 -0.311,-0.083c-0.096,-0.027 -0.193,-0.051 -0.288,-0.081c-0.104,-0.033 -0.206,-0.071 -0.31,-0.108c-0.095,-0.034 -0.19,-0.065 -0.284,-0.103c-0.103,-0.041 -0.206,-0.088 -0.309,-0.134c-0.093,-0.041 -0.186,-0.08 -0.279,-0.124c-0.103,-0.05 -0.205,-0.106 -0.308,-0.16c-0.092,-0.049 -0.184,-0.094 -0.275,-0.146c-0.102,-0.058 -0.204,-0.123 -0.305,-0.186c-0.091,-0.056 -0.182,-0.109 -0.272,-0.169c-0.102,-0.068 -0.204,-0.142 -0.306,-0.215c-0.089,-0.063 -0.178,-0.123 -0.266,-0.189c-0.103,-0.077 -0.205,-0.162 -0.307,-0.245c-0.087,-0.07 -0.174,-0.136 -0.26,-0.21c-0.103,-0.087 -0.205,-0.182 -0.307,-0.275c-0.085,-0.077 -0.17,-0.15 -0.255,-0.23c-0.104,-0.098 -0.207,-0.205 -0.31,-0.309c-0.082,-0.082 -0.164,-0.161 -0.246,-0.246c-0.105,-0.111 -0.21,-0.229 -0.315,-0.346c-0.079,-0.088 -0.158,-0.171 -0.237,-0.262c-0.109,-0.126 -0.217,-0.26 -0.326,-0.393c-0.073,-0.089 -0.147,-0.174 -0.22,-0.266c-0.118,-0.149 -0.235,-0.307 -0.352,-0.463c-0.063,-0.084 -0.126,-0.163 -0.189,-0.249c-0.171,-0.234 -0.341,-0.478 -0.51,-0.728c-0.009,-0.013 -0.017,-0.024 -0.026,-0.037c-0.129,-0.191 -0.256,-0.369 -0.382,-0.541c-0.036,-0.049 -0.072,-0.097 -0.109,-0.144c-0.097,-0.128 -0.193,-0.251 -0.289,-0.368c-0.033,-0.04 -0.065,-0.081 -0.098,-0.12c-0.124,-0.147 -0.247,-0.288 -0.369,-0.419c-0.021,-0.023 -0.042,-0.043 -0.064,-0.065c-0.103,-0.108 -0.206,-0.211 -0.309,-0.308c-0.036,-0.035 -0.073,-0.068 -0.109,-0.101c-0.099,-0.09 -0.197,-0.175 -0.296,-0.255c-0.025,-0.021 -0.051,-0.043 -0.076,-0.063c-0.122,-0.096 -0.243,-0.186 -0.365,-0.269c-0.03,-0.021 -0.06,-0.039 -0.09,-0.059c-0.095,-0.063 -0.191,-0.122 -0.287,-0.177c-0.036,-0.021 -0.073,-0.042 -0.109,-0.062c-0.111,-0.061 -0.223,-0.118 -0.335,-0.17c-0.012,-0.006 -0.024,-0.012 -0.036,-0.018c-0.124,-0.056 -0.249,-0.106 -0.375,-0.152c0.126,0.046 0.251,0.096 0.375,0.152c-0.124,-0.056 -0.249,-0.106 -0.375,-0.152c-0.035,-0.013 -0.071,-0.025 -0.106,-0.037c-0.096,-0.033 -0.194,-0.064 -0.291,-0.092c-0.035,-0.01 -0.07,-0.021 -0.105,-0.03c-0.128,-0.034 -0.256,-0.065 -0.386,-0.091c-0.015,-0.003 -0.03,-0.006 -0.045,-0.009c-0.117,-0.023 -0.235,-0.043 -0.355,-0.061c-0.039,-0.006 -0.079,-0.012 -0.119,-0.018c-0.105,-0.014 -0.212,-0.029 -0.319,-0.039c-0.032,-0.003 -0.063,-0.012 -0.095,-0.015c-0.137,-0.012 -0.275,-0.033 -0.415,-0.04c-0.032,-0.002 -0.065,-0.026 -0.097,-0.027c-0.113,-0.005 -0.228,-0.055 -0.344,-0.058c-0.043,-0.001 -0.087,-0.095 -0.131,-0.096c-0.124,-0.002 -0.25,-0.189 -0.377,-0.189c-0.017,0 -0.033,0 -0.05,0c-0.006,0 -0.013,0 -0.019,0c-0.142,0 -0.286,0.175 -0.433,0.176c-0.057,0.001 -0.115,0.175 -0.173,0.176c-0.121,0.001 -0.243,-0.021 -0.368,-0.02c-0.11,0.001 -0.222,-0.046 -0.334,-0.045c-0.062,0.001 -0.123,-0.096 -0.186,-0.095c-0.137,0.001 -0.276,-0.192 -0.417,-0.192c-0.024,0 -0.048,0 -0.072,0c-0.161,0 -0.326,0.193 -0.493,0.191c-0.048,-0.001 -0.098,0.192 -0.146,0.192c0.049,0.001 0.098,0.002 0.146,0.003c-0.048,-0.001 -0.098,-0.002 -0.146,-0.003c-0.123,-0.002 -0.247,-0.005 -0.373,-0.009c-0.06,-0.002 -0.121,-0.004 -0.182,-0.006c-0.125,-0.005 -0.251,-0.01 -0.379,-0.017c-0.057,-0.003 -0.113,-0.005 -0.171,-0.009c-0.184,-0.011 -0.371,-0.023 -0.563,-0.038c-0.247,-0.02 -0.482,-0.048 -0.708,-0.084c-0.677,-0.107 -1.263,-0.282 -1.775,-0.512c-0.682,-0.307 -1.232,-0.711 -1.689,-1.182c-0.267,-0.275 -0.5,-0.576 -0.711,-0.89c-0.111,-0.166 -0.216,-0.336 -0.316,-0.51c-0.157,-0.276 -0.302,-0.56 -0.436,-0.851c-0.264,-0.571 -0.494,-1.162 -0.721,-1.747c-0.072,-0.184 -0.143,-0.368 -0.216,-0.55c-0.041,-0.104 -0.083,-0.206 -0.125,-0.309c-0.104,-0.253 -0.21,-0.502 -0.324,-0.745c-0.066,-0.142 -0.135,-0.282 -0.206,-0.418c-0.099,-0.19 -0.206,-0.372 -0.317,-0.551c-0.29,-0.463 -0.624,-0.884 -1.037,-1.235c-0.114,-0.097 -0.234,-0.189 -0.361,-0.275c-0.253,-0.172 -0.532,-0.322 -0.842,-0.445c-0.155,-0.061 -0.317,-0.116 -0.488,-0.164c-0.171,-0.048 -0.35,-0.088 -0.538,-0.121c-0.078,-0.014 -0.156,-0.031 -0.236,-0.054c-0.479,-0.133 -0.993,-0.42 -1.517,-0.841c-0.262,-0.211 -0.525,-0.455 -0.788,-0.73c-0.175,-0.183 -0.35,-0.38 -0.523,-0.591c-0.136,-0.165 -0.271,-0.341 -0.405,-0.522c-0.121,-0.164 -0.242,-0.332 -0.36,-0.509c-0.083,-0.124 -0.166,-0.25 -0.247,-0.38c-0.133,-0.212 -0.264,-0.434 -0.392,-0.661c-0.056,-0.099 -0.111,-0.199 -0.165,-0.3c-1.048,-1.947 -1.879,-4.387 -2.176,-7.088c-0.068,-0.615 -0.15,-1.126 -0.253,-1.565c-0.051,-0.219 -0.108,-0.421 -0.17,-0.608s-0.13,-0.361 -0.205,-0.524s-0.156,-0.316 -0.244,-0.463c-0.133,-0.22 -0.281,-0.427 -0.448,-0.632c-0.167,-0.206 -0.353,-0.411 -0.559,-0.629c-0.275,-0.291 -0.587,-0.604 -0.942,-0.971c-0.177,-0.184 -0.365,-0.381 -0.565,-0.596c-0.1,-0.107 -0.202,-0.219 -0.308,-0.336c-0.211,-0.233 -0.433,-0.486 -0.668,-0.763c-0.47,-0.553 -0.989,-1.2 -1.563,-1.972c-0.43,-0.579 -0.892,-1.229 -1.387,-1.963c-0.227,-0.336 -0.438,-0.62 -0.631,-0.871c-0.097,-0.125 -0.189,-0.243 -0.277,-0.354s-0.171,-0.217 -0.249,-0.319c-0.117,-0.153 -0.224,-0.299 -0.319,-0.445c-0.063,-0.098 -0.122,-0.195 -0.175,-0.296c-0.027,-0.05 -0.052,-0.101 -0.076,-0.153c-0.096,-0.208 -0.169,-0.432 -0.22,-0.692c-0.038,-0.195 -0.063,-0.409 -0.074,-0.652c-0.004,-0.081 -0.006,-0.165 -0.006,-0.253s0,-0.179 0.003,-0.273c0.005,-0.19 0.016,-0.394 0.034,-0.616c0.045,-0.555 0.13,-1.219 0.26,-2.03c0.052,-0.324 0.111,-0.672 0.177,-1.046c0.02,-0.115 0.035,-0.227 0.044,-0.336s0.013,-0.216 0.012,-0.32c-0.007,-0.729 -0.26,-1.333 -0.646,-1.855c-0.055,-0.075 -0.114,-0.147 -0.174,-0.219c-0.12,-0.143 -0.253,-0.279 -0.389,-0.411c-0.068,-0.066 -0.143,-0.13 -0.215,-0.193c-1.358,-1.201 -3.232,-1.98 -3.353,-3.205c-0.14,-1.425 -0.212,-2.608 -0.212,-3.691c0,-0.003 0,-0.005 0,-0.008c0,-0.404 0.038,-0.793 0.062,-1.177c0.008,-0.129 0.037,-0.256 0.048,-0.384c0.114,-1.401 0.364,-2.749 0.739,-4.416c0.034,-0.152 0.069,-0.306 0.105,-0.463c0.217,-0.942 0.471,-1.989 0.76,-3.201c0.096,-0.404 0.197,-0.826 0.301,-1.269c0.129,-0.547 0.011,-1.087 -0.225,-1.703c-0.059,-0.154 -0.125,-0.313 -0.197,-0.477c-0.143,-0.329 -0.308,-0.683 -0.478,-1.072c-0.17,-0.388 -0.346,-0.811 -0.51,-1.28c-0.041,-0.117 -0.082,-0.237 -0.121,-0.36c-0.158,-0.491 -0.302,-1.03 -0.414,-1.628c-0.028,-0.149 -0.054,-0.302 -0.078,-0.459c-0.096,-0.627 -0.157,-1.315 -0.167,-2.074c-0.01,-0.759 0.031,-1.589 0.139,-2.501c0.056,-0.472 0.029,-0.945 -0.034,-1.422c-0.025,-0.191 -0.056,-0.383 -0.089,-0.575c-0.033,-0.193 -0.069,-0.386 -0.105,-0.581c-0.089,-0.488 -0.176,-0.983 -0.212,-1.491c-0.007,-0.102 -0.012,-0.204 -0.015,-0.306s-0.003,-0.206 -0.001,-0.309c0.002,-0.104 0.007,-0.208 0.016,-0.313c0.025,-0.314 0.078,-0.634 0.17,-0.959c0.092,-0.326 0.223,-0.657 0.402,-0.996c0.202,-0.381 0.466,-0.771 0.807,-1.171c0.341,-0.4 0.759,-0.811 1.268,-1.232c0.339,-0.281 0.719,-0.568 1.144,-0.859c0.424,-0.291 0.784,-0.57 1.084,-0.836c0.15,-0.133 0.286,-0.263 0.408,-0.391c0.243,-0.255 0.431,-0.498 0.57,-0.732c0.208,-0.35 0.305,-0.677 0.312,-0.984c-0.007,0.307 -0.104,0.634 -0.312,0.984c-0.139,0.233 -0.326,0.477 -0.57,0.732c-0.122,0.127 -0.257,0.258 -0.408,0.391c-0.301,0.266 -0.66,0.545 -1.084,0.836c-0.425,0.292 -0.805,0.578 -1.144,0.859c-0.509,0.422 -0.927,0.832 -1.268,1.232s-0.605,0.79 -0.807,1.171c0.539,-1.016 1.676,-2.096 3.376,-3.263c1.697,-1.165 2.53,-2.123 2.53,-2.942c0,-0.002 0,-0.003 0,-0.005c0,-0.149 -0.173,-0.294 -0.21,-0.435c-0.008,-0.029 -0.173,-0.059 -0.182,-0.088c-0.02,-0.062 -0.044,-0.123 -0.071,-0.184c-0.032,-0.071 -0.067,-0.142 -0.108,-0.211c-0.061,-0.104 -0.134,-0.205 -0.214,-0.304c-0.066,-0.081 -0.137,-0.162 -0.214,-0.24c-0.003,-0.003 -0.005,-0.006 -0.008,-0.009c-0.14,-0.143 -0.298,-0.281 -0.468,-0.417c-0.08,-0.064 -0.163,-0.127 -0.249,-0.189c-0.148,-0.107 -0.303,-0.213 -0.464,-0.317c-0.101,-0.065 -0.203,-0.129 -0.307,-0.193c-0.19,-0.116 -0.386,-0.23 -0.584,-0.343c-0.329,-0.188 -0.664,-0.372 -0.989,-0.554c-0.13,-0.073 -0.259,-0.146 -0.385,-0.218c-0.126,-0.073 -0.25,-0.145 -0.37,-0.218c-0.06,-0.036 -0.119,-0.073 -0.178,-0.109c-0.117,-0.073 -0.229,-0.146 -0.337,-0.219c-0.431,-0.293 -0.784,-0.592 -0.999,-0.907c-0.054,-0.079 -0.099,-0.159 -0.134,-0.239c-0.089,-0.202 -0.117,-0.412 -0.07,-0.631c0.606,-2.851 2.263,-6.243 5.022,-8.992c0.502,-0.5 1.04,-0.978 1.615,-1.428c0.862,-0.675 1.807,-1.286 2.836,-1.81c2.483,-1.263 3.182,-2.17 3.038,-2.933c-0.019,-0.102 -0.053,-0.201 -0.1,-0.298c-0.051,-0.107 -0.119,-0.21 -0.198,-0.313c-0.105,-0.136 -0.231,-0.269 -0.373,-0.4c-0.092,-0.086 -0.191,-0.17 -0.294,-0.255c-0.078,-0.064 -0.16,-0.128 -0.242,-0.192c-0.606,-0.47 -1.305,-0.944 -1.769,-1.494c-0.044,-0.052 -0.086,-0.105 -0.125,-0.159c-0.079,-0.107 -0.148,-0.217 -0.206,-0.331c-0.115,-0.227 -0.183,-0.469 -0.186,-0.728c-0.003,-0.325 0.095,-0.677 0.329,-1.067c0.094,-0.156 0.209,-0.317 0.349,-0.485c0.367,-0.44 0.899,-0.924 1.638,-1.461c0.492,-0.358 1.077,-0.739 1.764,-1.146c1.031,-0.611 2.296,-1.281 3.834,-2.018c0.331,-0.159 0.632,-0.315 0.904,-0.468c0.409,-0.23 0.754,-0.454 1.043,-0.673c0.193,-0.146 0.361,-0.289 0.506,-0.431c0.653,-0.636 0.846,-1.229 0.778,-1.797c-0.045,-0.379 -0.206,-0.747 -0.423,-1.11c-0.109,-0.181 -0.231,-0.362 -0.36,-0.541c-0.129,-0.179 -0.265,-0.358 -0.401,-0.537c-0.09,-0.119 -0.18,-0.239 -0.268,-0.358c-0.087,-0.12 -0.172,-0.239 -0.253,-0.36c-0.04,-0.06 -0.079,-0.12 -0.117,-0.181c-0.187,-0.302 -0.339,-0.607 -0.419,-0.919c-0.048,-0.187 -0.071,-0.377 -0.062,-0.569c0.007,-0.145 0.036,-0.292 0.084,-0.441c0.037,-0.115 0.084,-0.23 0.148,-0.347c0.074,-0.135 0.166,-0.271 0.28,-0.41c0.227,-0.277 0.539,-0.562 0.954,-0.856c0.104,-0.074 0.214,-0.148 0.33,-0.223c0.158,-0.102 0.334,-0.205 0.518,-0.309c0.176,-0.1 0.364,-0.2 0.564,-0.302c1.438,-0.732 3.516,-1.523 6.466,-2.397c0.829,-0.246 1.423,-0.498 1.828,-0.756c0.067,-0.043 0.13,-0.086 0.187,-0.129c0.172,-0.13 0.298,-0.261 0.386,-0.394c0.058,-0.088 0.099,-0.177 0.125,-0.267c0.051,-0.179 0.039,-0.36 -0.02,-0.543c-0.015,-0.046 -0.033,-0.092 -0.054,-0.138c-0.094,-0.208 -0.246,-0.419 -0.434,-0.631c-0.04,-0.045 -0.081,-0.09 -0.123,-0.135c-0.068,-0.071 -0.138,-0.142 -0.211,-0.214c-0.053,-0.051 -0.108,-0.103 -0.164,-0.155c-0.252,-0.233 -0.528,-0.468 -0.802,-0.704c-0.056,-0.048 -0.111,-0.096 -0.167,-0.144c-0.111,-0.096 -0.22,-0.193 -0.326,-0.29c-0.213,-0.193 -0.413,-0.388 -0.587,-0.582c-0.157,-0.175 -0.29,-0.35 -0.394,-0.526c-0.026,-0.044 -0.05,-0.088 -0.072,-0.132c-0.06,-0.122 -0.106,-0.243 -0.13,-0.365c-0.01,-0.049 -0.016,-0.097 -0.019,-0.146c-0.055,-0.926 1.126,-1.847 5.065,-2.734c3.094,-0.697 4.521,-1.402 5.062,-2.091c0.072,-0.092 0.129,-0.184 0.171,-0.275c0.042,-0.091 0.071,-0.182 0.088,-0.273c0.033,-0.181 0.018,-0.361 -0.03,-0.538c-0.036,-0.133 -0.091,-0.265 -0.158,-0.396c-0.09,-0.174 -0.202,-0.346 -0.321,-0.515c-0.388,-0.55 -0.853,-1.07 -0.887,-1.544c-0.003,-0.037 -0.003,-0.073 0,-0.109c0.008,-0.108 0.041,-0.213 0.106,-0.316c0.151,-0.24 0.472,-0.465 1.043,-0.673c0.326,-0.119 0.734,-0.233 1.239,-0.34c0.531,-0.113 1.172,-0.22 1.934,-0.319c0.324,-0.042 0.667,-0.083 1.037,-0.123c1.063,-0.114 1.682,-0.288 2.03,-0.504c0.063,-0.039 0.117,-0.08 0.164,-0.122c0.116,-0.105 0.182,-0.219 0.215,-0.339c0.08,-0.288 -0.032,-0.615 -0.11,-0.958c-0.065,-0.286 -0.106,-0.583 0.008,-0.879c0.011,-0.03 0.024,-0.059 0.039,-0.089c0.116,-0.236 0.339,-0.471 0.736,-0.697c0.05,-0.028 0.102,-0.056 0.157,-0.084c0.772,-0.392 2.101,-0.757 4.345,-1.059c0.187,-0.025 0.354,-0.084 0.505,-0.17c0.05,-0.029 0.099,-0.061 0.146,-0.095c0.236,-0.173 0.433,-0.417 0.611,-0.705c0.214,-0.345 0.401,-0.752 0.597,-1.174c0.556,-1.196 1.183,-2.509 2.69,-2.853c2.297,-0.525 3.196,-0.615 3.811,-0.903c0.142,-0.066 0.269,-0.144 0.394,-0.239c0.23,-0.175 0.468,-0.342 0.711,-0.507c0.075,-0.05 0.151,-0.099 0.227,-0.148c0.176,-0.115 0.355,-0.227 0.538,-0.337c0.084,-0.05 0.168,-0.101 0.253,-0.15c0.203,-0.117 0.41,-0.231 0.62,-0.342c0.061,-0.032 0.12,-0.065 0.181,-0.097c0.271,-0.139 0.548,-0.273 0.83,-0.401c0.071,-0.032 0.144,-0.063 0.216,-0.094c0.217,-0.096 0.437,-0.19 0.661,-0.28c0.099,-0.04 0.198,-0.079 0.298,-0.117c0.214,-0.083 0.431,-0.162 0.65,-0.24c0.093,-0.033 0.184,-0.066 0.278,-0.098c0.309,-0.105 0.621,-0.206 0.941,-0.301c0.028,-0.008 0.057,-0.016 0.085,-0.024c0.294,-0.086 0.593,-0.168 0.895,-0.246c0.105,-0.027 0.211,-0.053 0.318,-0.079c0.236,-0.058 0.475,-0.114 0.716,-0.167c0.112,-0.025 0.224,-0.049 0.337,-0.073c0.276,-0.058 0.555,-0.112 0.837,-0.163c0.071,-0.013 0.141,-0.027 0.213,-0.04c0.352,-0.062 0.708,-0.118 1.069,-0.171c0.098,-0.014 0.197,-0.026 0.295,-0.04c0.271,-0.037 0.544,-0.072 0.819,-0.104c0.124,-0.014 0.249,-0.028 0.374,-0.041c0.271,-0.029 0.545,-0.054 0.821,-0.078c0.11,-0.009 0.218,-0.018 0.329,-0.027c0.381,-0.03 0.765,-0.052 1.154,-0.073c0.054,-0.003 0.11,0.003 0.164,0c0.338,-0.017 0.679,-0.015 1.022,-0.025c0.127,-0.004 0.256,0.024 0.384,0.021c0.284,-0.006 0.569,0.049 0.856,0.048c0.129,-0.001 0.257,0.117 0.386,0.117c0.412,0.001 0.826,0.252 1.245,0.252c0.012,0 0.023,0 0.035,0c0.43,0 0.864,-0.207 1.301,-0.186c0.127,0.006 0.255,-0.222 0.383,-0.215c0.331,0.018 0.664,0.039 0.999,0.062c0.124,0.009 0.247,0.017 0.371,0.026c0.444,0.034 0.89,0.071 1.34,0.114c0.052,0.005 0.105,0.011 0.157,0.016c0.402,0.039 0.806,0.083 1.212,0.13c0.137,0.016 0.274,0.032 0.411,0.049c0.351,0.043 0.704,0.088 1.058,0.136c0.118,0.016 0.236,0.031 0.355,0.048c0.461,0.065 0.924,0.134 1.39,0.208c0.087,0.014 0.174,0.029 0.261,0.043c0.386,0.063 0.773,0.129 1.162,0.198c0.142,0.025 0.285,0.051 0.427,0.077c0.376,0.069 0.754,0.141 1.132,0.215c0.104,0.021 0.208,0.04 0.312,0.061c0.475,0.095 0.951,0.195 1.429,0.299c0.111,0.024 0.223,0.05 0.334,0.075c0.377,0.084 0.756,0.17 1.135,0.26c0.144,0.034 0.289,0.068 0.433,0.103c0.408,0.098 0.816,0.199 1.226,0.304c0.079,0.02 0.158,0.039 0.237,0.06c0.484,0.125 0.97,0.255 1.456,0.388c0.127,0.035 0.254,0.071 0.381,0.107c0.374,0.104 0.748,0.211 1.122,0.32c0.143,0.042 0.286,0.083 0.429,0.126c0.454,0.135 0.908,0.273 1.362,0.415c0.037,0.011 0.073,0.022 0.11,0.034c0.49,0.154 0.98,0.313 1.47,0.475c0.137,0.045 0.273,0.092 0.41,0.137c0.373,0.125 0.746,0.253 1.118,0.383c0.138,0.048 0.275,0.096 0.413,0.144c0.49,0.173 0.981,0.349 1.471,0.531c0.029,0.011 0.057,0.022 0.085,0.032c0.462,0.171 0.923,0.347 1.384,0.526c0.143,0.055 0.285,0.111 0.428,0.167c0.374,0.147 0.747,0.296 1.12,0.447c0.128,0.052 0.256,0.103 0.384,0.156c0.486,0.2 0.971,0.402 1.455,0.61c0.076,0.032 0.151,0.066 0.226,0.099c0.413,0.178 0.825,0.359 1.236,0.543c0.143,0.064 0.286,0.129 0.429,0.193c0.378,0.171 0.756,0.345 1.133,0.521c0.112,0.052 0.225,0.104 0.337,0.157c0.478,0.225 0.954,0.454 1.428,0.687c0.1,0.049 0.2,0.1 0.301,0.149c0.381,0.188 0.761,0.379 1.139,0.572c0.142,0.072 0.283,0.145 0.425,0.218c0.385,0.199 0.769,0.401 1.152,0.604c0.09,0.048 0.181,0.095 0.271,0.143c0.465,0.25 0.928,0.504 1.388,0.76c0.115,0.064 0.229,0.129 0.344,0.194c0.356,0.201 0.711,0.403 1.064,0.608c0.136,0.079 0.273,0.158 0.409,0.238c0.402,0.236 0.802,0.474 1.199,0.715c0.055,0.034 0.112,0.067 0.167,0.1c0.449,0.274 0.894,0.552 1.338,0.833c0.121,0.077 0.241,0.154 0.362,0.232c0.337,0.216 0.672,0.433 1.005,0.653c0.126,0.083 0.251,0.165 0.377,0.249c0.437,0.291 0.871,0.585 1.301,0.883c2.647,1.835 4.734,3.978 6.351,6.339c0.231,0.337 0.453,0.679 0.665,1.025c2.122,3.459 3.313,7.338 3.837,11.377c0.367,2.827 0.408,5.732 0.213,8.626c-0.056,0.827 -0.131,1.653 -0.223,2.476c-0.23,2.057 -0.567,4.096 -0.978,6.083c-2.63,12.719 -8.285,23.341 -8.285,23.341c-30.969,-2.432 -41.59,-11.834 -41.59,-11.834c-5.981,4.469 -11.106,8.213 -15.367,11.654c-0.474,0.382 -0.936,0.761 -1.389,1.137c-1.357,1.126 -2.617,2.225 -3.782,3.31c-0.388,0.362 -0.766,0.722 -1.133,1.082c-6.237,6.112 -9.385,11.981 -9.408,20.451c-0.001,0.498 0.008,1.006 0.028,1.522c0.135,3.454 1.217,6.841 2.965,9.98c0.103,0.185 0.208,0.368 0.315,0.551c0.537,0.914 1.13,1.806 1.772,2.671c0.257,0.346 0.522,0.688 0.794,1.025c0.544,0.674 1.118,1.33 1.718,1.965c0.15,0.159 0.302,0.316 0.455,0.472c0.919,0.937 1.894,1.825 2.914,2.658c0.17,0.139 0.341,0.276 0.513,0.412c2.965,2.333 6.275,4.194 9.64,5.396l0,0c1.916,0.685 3.85,1.157 5.748,1.38c0.25,0.029 0.5,0.043 0.75,0.043c2.798,0 5.538,-1.693 7.177,-1.693c0.109,0 0.213,0.008 0.313,0.023c0.289,0.047 0.563,0.068 0.827,0.068c3.797,0 5.197,-4.527 9.707,-4.527c0.146,0 0.296,0.005 0.448,0.015c0.038,0.002 0.074,0.004 0.111,0.004c0.255,0 0.49,-0.06 0.711,-0.164c0.033,-0.016 0.066,-0.032 0.099,-0.049c0.034,-0.018 0.067,-0.038 0.099,-0.058c0.032,-0.02 0.064,-0.04 0.095,-0.062c0.032,-0.022 0.063,-0.046 0.095,-0.07c0.031,-0.024 0.062,-0.048 0.092,-0.073c0.03,-0.026 0.06,-0.053 0.09,-0.08c0.03,-0.028 0.06,-0.055 0.09,-0.084c0.029,-0.029 0.058,-0.059 0.087,-0.09c0.029,-0.031 0.058,-0.062 0.087,-0.094c0.028,-0.032 0.056,-0.065 0.083,-0.098c0.028,-0.034 0.057,-0.068 0.084,-0.104c0.027,-0.034 0.054,-0.07 0.08,-0.105c0.028,-0.037 0.056,-0.075 0.083,-0.113c0.026,-0.036 0.051,-0.073 0.076,-0.11c0.027,-0.04 0.055,-0.081 0.082,-0.122c0.025,-0.038 0.049,-0.076 0.074,-0.115c0.027,-0.043 0.055,-0.086 0.081,-0.13c0.024,-0.038 0.047,-0.078 0.07,-0.117c0.027,-0.046 0.055,-0.092 0.082,-0.138c0.023,-0.039 0.045,-0.078 0.067,-0.118c0.027,-0.048 0.055,-0.096 0.082,-0.145c0.022,-0.039 0.044,-0.079 0.065,-0.119c0.028,-0.051 0.056,-0.102 0.084,-0.153c0.02,-0.037 0.039,-0.074 0.059,-0.11c0.031,-0.057 0.061,-0.114 0.091,-0.172c0.013,-0.024 0.026,-0.049 0.039,-0.073c0.07,-0.132 0.139,-0.265 0.209,-0.398c0.006,-0.012 0.013,-0.024 0.019,-0.036c0.031,-0.059 0.062,-0.118 0.094,-0.177c0.02,-0.038 0.04,-0.076 0.06,-0.113c0.029,-0.054 0.058,-0.107 0.087,-0.161c0.021,-0.038 0.042,-0.077 0.063,-0.115c0.027,-0.05 0.055,-0.1 0.083,-0.149c0.023,-0.041 0.046,-0.082 0.069,-0.123c0.027,-0.047 0.054,-0.093 0.08,-0.139c0.532,-0.915 1.118,-1.693 1.883,-1.975c0.988,-0.365 1.852,-0.782 2.615,-1.238c0.254,-0.152 0.497,-0.308 0.729,-0.468c0.813,-0.559 1.497,-1.164 2.087,-1.79c0.084,-0.089 0.167,-0.179 0.247,-0.27c0.161,-0.181 0.315,-0.363 0.462,-0.546s0.288,-0.367 0.423,-0.551c0.202,-0.277 0.392,-0.554 0.571,-0.831c0.179,-0.276 0.349,-0.552 0.511,-0.825c0.324,-0.546 0.618,-1.08 0.904,-1.589c2.339,-4.157 7.647,-11.757 12.955,-17.107c0.076,-0.076 0.151,-0.152 0.227,-0.227c0.065,-0.064 0.129,-0.129 0.194,-0.192c0.075,-0.074 0.151,-0.148 0.226,-0.221c0.065,-0.063 0.129,-0.126 0.194,-0.188c0.075,-0.072 0.15,-0.143 0.225,-0.215c0.065,-0.062 0.13,-0.123 0.195,-0.184c0.075,-0.07 0.149,-0.139 0.224,-0.208c0.065,-0.06 0.13,-0.12 0.195,-0.179c0.075,-0.068 0.15,-0.136 0.225,-0.203c0.064,-0.057 0.128,-0.115 0.191,-0.171c0.076,-0.067 0.152,-0.133 0.227,-0.199c0.063,-0.055 0.125,-0.11 0.188,-0.163c0.076,-0.065 0.152,-0.129 0.228,-0.193c0.062,-0.052 0.123,-0.104 0.185,-0.155c0.078,-0.065 0.156,-0.128 0.233,-0.191c0.059,-0.048 0.118,-0.097 0.177,-0.144c0.082,-0.065 0.163,-0.129 0.244,-0.192c0.054,-0.043 0.109,-0.086 0.163,-0.128c0.087,-0.067 0.173,-0.131 0.259,-0.196c0.049,-0.037 0.098,-0.074 0.147,-0.11c0.102,-0.075 0.203,-0.147 0.303,-0.219c0.033,-0.023 0.066,-0.048 0.099,-0.071c0.133,-0.094 0.266,-0.185 0.398,-0.274c0.032,-0.021 0.063,-0.041 0.095,-0.062c0.1,-0.066 0.2,-0.132 0.299,-0.194c0.048,-0.03 0.095,-0.059 0.143,-0.088c0.082,-0.051 0.165,-0.102 0.246,-0.151c0.054,-0.032 0.107,-0.062 0.16,-0.092c0.075,-0.043 0.15,-0.087 0.225,-0.128c0.056,-0.031 0.111,-0.059 0.166,-0.089c0.072,-0.038 0.144,-0.077 0.215,-0.114c0.056,-0.028 0.111,-0.055 0.166,-0.082c0.07,-0.034 0.14,-0.069 0.209,-0.101c0.056,-0.026 0.112,-0.05 0.168,-0.075c0.067,-0.03 0.135,-0.06 0.202,-0.088c0.056,-0.023 0.112,-0.045 0.168,-0.067c0.066,-0.026 0.131,-0.052 0.197,-0.076c0.055,-0.02 0.11,-0.039 0.165,-0.057c0.065,-0.022 0.129,-0.044 0.193,-0.064c0.055,-0.017 0.109,-0.032 0.163,-0.048c0.063,-0.018 0.126,-0.035 0.188,-0.051c0.054,-0.014 0.107,-0.026 0.161,-0.038c0.061,-0.014 0.123,-0.027 0.183,-0.038c0.053,-0.01 0.106,-0.018 0.158,-0.027c0.06,-0.01 0.12,-0.017 0.179,-0.024c0.052,-0.007 0.104,-0.009 0.155,-0.014c0.059,-0.005 0.117,-0.004 0.175,-0.007c0.051,-0.003 0.101,0.006 0.152,0.006c0.049,0 0.098,0 0.147,0c0.088,0 0.175,-0.02 0.261,-0.012c0.038,0.003 0.077,-0.02 0.114,-0.016c0.121,0.014 0.24,0.029 0.356,0.029l0.002,0c1.317,0 1.94,1.108 2.124,2.332c0.014,0.094 0.026,0.221 0.035,0.32c0.018,0.199 0.026,0.408 0.025,0.627c0,0.11 -0.003,0.222 -0.008,0.336c-0.01,0.229 -0.028,0.468 -0.054,0.717c-0.013,0.125 -0.028,0.251 -0.044,0.381c-0.05,0.388 -0.116,0.798 -0.195,1.229c-0.132,0.719 -0.3,1.497 -0.489,2.33c-0.152,0.667 -0.317,1.37 -0.489,2.107c-0.129,0.553 -0.261,1.125 -0.394,1.715c-0.177,0.787 -0.355,1.608 -0.527,2.46c-0.043,0.213 -0.085,0.428 -0.127,0.645c-0.084,0.434 -0.166,0.876 -0.244,1.325c-0.079,0.449 -0.154,0.906 -0.226,1.371c-0.072,0.464 -0.139,0.936 -0.202,1.415c-0.094,0.718 -0.178,1.453 -0.247,2.203c-0.092,1 -0.159,2.028 -0.194,3.083c-0.009,0.264 -0.015,0.529 -0.02,0.796c-0.044,2.668 0.126,5.497 0.628,8.463c0.067,0.399 0.036,0.751 -0.066,1.069c-0.041,0.128 -0.093,0.25 -0.154,0.368c-0.123,0.236 -0.282,0.455 -0.465,0.666c-0.046,0.053 -0.092,0.105 -0.141,0.156c-0.096,0.103 -0.197,0.205 -0.3,0.305s-0.21,0.201 -0.317,0.301c-0.375,0.351 -0.76,0.705 -1.074,1.104c-0.045,0.057 -0.088,0.115 -0.13,0.174c-0.335,0.472 -0.562,1.012 -0.562,1.683c0,1.345 -0.082,2.585 -0.239,3.747c-0.052,0.387 -0.113,0.766 -0.182,1.136c-0.276,1.482 -0.683,2.84 -1.206,4.133c-0.653,1.617 -1.487,3.134 -2.473,4.669c-0.592,0.921 -1.238,1.85 -1.932,2.811c-0.301,0.416 -0.67,0.744 -1.083,1.017c-0.083,0.055 -0.167,0.107 -0.253,0.158c-0.172,0.101 -0.35,0.194 -0.534,0.282c-0.549,0.264 -1.142,0.478 -1.736,0.7c-0.198,0.074 -0.396,0.149 -0.593,0.227c-0.393,0.156 -0.781,0.324 -1.151,0.522c-0.046,0.025 -0.091,0.051 -0.137,0.077c-0.137,0.077 -0.272,0.157 -0.402,0.244c-0.436,0.289 -0.834,0.638 -1.171,1.079c-0.113,0.148 -0.217,0.309 -0.315,0.479c-0.194,0.337 -0.359,0.718 -0.485,1.157c-1.104,3.865 -1.746,5.458 -3.829,6.448c-0.174,0.083 -0.357,0.161 -0.552,0.236c-0.584,0.225 -1.269,0.421 -2.083,0.615c-0.378,0.09 -0.637,0.488 -0.877,1.014c-0.053,0.117 -0.106,0.24 -0.158,0.368c-0.052,0.128 -0.105,0.26 -0.159,0.394c-0.027,0.067 -0.054,0.135 -0.082,0.203c-0.498,1.225 -1.14,2.561 -2.724,2.561c-2.175,0 -3.628,0.103 -4.712,0.485c-0.155,0.055 -0.302,0.115 -0.443,0.182c-0.282,0.133 -0.537,0.291 -0.775,0.478c-0.06,0.047 -0.118,0.095 -0.175,0.146c-0.402,0.353 -0.756,0.799 -1.107,1.358c-0.1,0.16 -0.2,0.329 -0.301,0.508s-0.202,0.368 -0.305,0.567c-1.575,3.04 -3.681,3.807 -5.919,3.807c-2.283,0 -4.703,-0.799 -6.832,-0.799c-1.539,0 -2.927,0.418 -4.002,1.855c-1.796,2.402 -3.591,3.639 -5.343,4.126c-0.055,0.016 -0.114,0.034 -0.172,0.048zm-72.335,-96.999c0.037,0.141 0.056,0.285 0.053,0.435c0.003,-0.15 -0.016,-0.294 -0.053,-0.435zm134.529,-48.038c17.512,16.032 -2.476,37.799 -2.476,37.799s3.449,-7.58 5.872,-19.349c2.161,-10.498 -3.396,-18.45 -3.396,-18.45zm-5.837,-21.799c-14.397,-5.688 -30.564,-6.421 -30.564,-6.421c8.843,-2.962 26.78,2.2 34.369,3.648s22.787,-7.537 22.787,-7.537c-5.904,6.063 -16.648,14.239 -26.592,10.31zm-36.515,-10.31c-8.562,-0.138 -16.183,0 -16.183,0s9.026,-1.128 20.484,-3.389c11.458,-2.261 25.186,-3.391 25.186,-3.391s-20.925,6.918 -29.487,6.78zm-20.992,103.169c1.586,7.19 7.444,11.167 7.444,11.167s-17,0 -6.796,-27.9c0,0 -1.868,11.205 -0.648,16.733zm6.379,26.498c8.386,-3.685 12.646,-8.737 12.646,-8.737c0.751,1.563 1.587,3.122 2.486,4.672c-3.134,0.016 -5.105,1.625 -6.689,2.92c-1.254,1.025 -2.01,1.605 -2.971,1.605c-0.149,0 -0.301,-0.013 -0.465,-0.039c-0.216,-0.035 -0.443,-0.053 -0.675,-0.053c-1.093,0 -2.219,0.391 -3.411,0.804c-1.201,0.417 -2.563,0.889 -3.766,0.889c-0.167,0 -0.331,-0.009 -0.485,-0.027c-0.501,-0.059 -1.009,-0.145 -1.519,-0.243c1.743,-0.531 3.363,-1.139 4.849,-1.791zm11.865,-25.488c0,-0.241 0.008,-0.476 0.023,-0.707c0.03,-0.457 0.069,-0.906 0.116,-1.349c0.016,-0.148 0.038,-0.291 0.055,-0.438c0.035,-0.291 0.069,-0.584 0.111,-0.869c0.026,-0.172 0.058,-0.339 0.086,-0.509c0.042,-0.253 0.081,-0.508 0.129,-0.756c0.034,-0.179 0.075,-0.351 0.111,-0.527c0.049,-0.233 0.095,-0.467 0.149,-0.696c0.042,-0.178 0.09,-0.351 0.134,-0.526c0.056,-0.219 0.11,-0.44 0.17,-0.655c0.049,-0.175 0.104,-0.344 0.156,-0.517c0.063,-0.208 0.124,-0.418 0.191,-0.622c0.056,-0.171 0.117,-0.336 0.176,-0.504c0.069,-0.198 0.137,-0.398 0.21,-0.592c0.063,-0.167 0.13,-0.328 0.196,-0.492c0.075,-0.188 0.149,-0.377 0.227,-0.56c0.069,-0.162 0.143,-0.319 0.215,-0.478c0.081,-0.179 0.16,-0.358 0.245,-0.533c0.075,-0.156 0.154,-0.307 0.232,-0.459c0.086,-0.17 0.172,-0.342 0.261,-0.508c0.08,-0.15 0.164,-0.294 0.247,-0.441c0.092,-0.162 0.183,-0.326 0.277,-0.484c0.086,-0.143 0.174,-0.282 0.262,-0.422c0.097,-0.155 0.193,-0.31 0.292,-0.461c0.09,-0.137 0.183,-0.269 0.276,-0.403c0.101,-0.147 0.202,-0.294 0.306,-0.437c0.095,-0.131 0.192,-0.257 0.289,-0.384c0.105,-0.138 0.21,-0.277 0.317,-0.412c0.099,-0.124 0.2,-0.244 0.301,-0.365c0.109,-0.131 0.218,-0.262 0.329,-0.388c0.103,-0.117 0.207,-0.23 0.311,-0.344c0.113,-0.123 0.225,-0.247 0.34,-0.366c0.106,-0.11 0.213,-0.217 0.32,-0.324c0.116,-0.116 0.232,-0.231 0.349,-0.343c0.109,-0.104 0.219,-0.204 0.329,-0.304c0.119,-0.108 0.238,-0.216 0.358,-0.32c0.112,-0.097 0.224,-0.19 0.337,-0.283c0.121,-0.1 0.243,-0.2 0.365,-0.297c0.114,-0.09 0.229,-0.176 0.343,-0.263c0.123,-0.093 0.247,-0.185 0.371,-0.274c0.116,-0.083 0.233,-0.163 0.35,-0.243c0.125,-0.085 0.25,-0.169 0.376,-0.25c0.118,-0.076 0.236,-0.149 0.354,-0.222c0.127,-0.078 0.253,-0.154 0.38,-0.228c0.119,-0.069 0.238,-0.135 0.357,-0.201c0.128,-0.07 0.256,-0.139 0.384,-0.205c0.12,-0.062 0.24,-0.121 0.36,-0.18c0.128,-0.062 0.256,-0.123 0.385,-0.181c0.121,-0.055 0.242,-0.108 0.363,-0.159c0.129,-0.055 0.257,-0.108 0.386,-0.158c0.121,-0.048 0.242,-0.094 0.363,-0.138c0.129,-0.047 0.257,-0.092 0.386,-0.136c0.121,-0.041 0.241,-0.08 0.362,-0.117c0.129,-0.04 0.257,-0.077 0.385,-0.113c0.12,-0.034 0.241,-0.066 0.361,-0.096c0.128,-0.032 0.255,-0.062 0.383,-0.09c0.12,-0.026 0.239,-0.052 0.358,-0.075c0.127,-0.024 0.253,-0.046 0.379,-0.067c0.119,-0.019 0.237,-0.038 0.355,-0.053c0.126,-0.017 0.25,-0.031 0.375,-0.044c0.117,-0.012 0.234,-0.023 0.35,-0.032c0.124,-0.009 0.247,-0.015 0.37,-0.021c0.115,-0.005 0.23,-0.009 0.345,-0.011c0.046,-0.001 0.094,-0.004 0.14,-0.004c0.147,0 0.293,0.003 0.437,0.009l0,0c2.112,0.084 4.033,1.405 5.702,3.261c0.185,0.206 0.368,0.419 0.547,0.638c0.717,0.874 1.383,1.838 1.993,2.83c0.229,0.372 0.449,0.748 0.662,1.125c0.142,0.251 0.28,0.503 0.414,0.754c0.067,0.126 0.133,0.251 0.199,0.376c0.131,0.25 0.258,0.499 0.381,0.746c0.123,0.247 0.242,0.492 0.358,0.734c0.374,0.784 0.706,1.534 0.995,2.222c-1.094,1.073 -2.235,2.287 -3.426,3.648c-4.444,5.078 -8.46,10.951 -10.468,14.52l-0.19,0.34c-1.424,2.544 -2.897,5.175 -7.166,6.751c-1.006,0.371 -1.752,1.072 -2.362,1.894c-3.739,-6.693 -6.201,-12.796 -6.195,-17.212zm126.3,-0.707c-1.941,1.637 -7.425,5.047 -7.425,5.047c1.919,0.883 4.378,9.222 4.378,9.222c-2.946,0.432 -4.216,2.108 -4.216,2.108s0.458,0.865 0.595,1.73c0.162,1.027 -0.033,1.789 -0.033,1.789s-0.934,-0.495 -1.238,-0.588c-2.027,-0.621 -3.432,5.284 -3.432,5.284c2.513,3.891 -0.108,8.215 -0.108,8.215c3.834,1.533 6.486,13.944 6.486,13.944c-1.621,-0.432 -3.922,-1.622 -3.922,-1.622s1.003,4.648 -2.276,10.365c-3.279,5.716 2.276,9.112 2.276,9.112c-13.65,10.289 -36.776,6.034 -36.776,6.034c-9.566,6.594 -24.808,2.965 -24.808,2.965s0,3.412 -2.18,7.304c-2.18,3.891 -3.616,2.417 -4.892,8.431c-1.161,5.474 2.423,11.35 2.423,11.35s-28.34,4.113 -44.968,-12.647c-6.199,-6.248 -14.157,-10.6 -20.112,-13.266c1.482,-0.884 2.875,-2.19 4.168,-3.919c0.436,-0.583 0.954,-0.945 2.184,-0.945c0.852,0 1.852,0.173 2.912,0.356c1.261,0.218 2.564,0.443 3.92,0.443c3.585,0 6.18,-1.646 7.934,-5.033c1.097,-2.117 1.294,-2.499 5.803,-2.499c3.235,0 4.385,-2.871 4.937,-4.251c0.06,-0.15 0.137,-0.342 0.208,-0.506c4.96,-1.314 5.983,-3.415 7.501,-8.728c0.008,-0.026 0.016,-0.05 0.024,-0.076c1.494,1.461 2.93,2.821 4.271,4.061c0.226,0.209 0.45,0.415 0.671,0.618c1.325,1.215 2.548,2.305 3.632,3.252c0.361,0.316 0.707,0.616 1.036,0.899c0.329,0.284 0.641,0.55 0.935,0.8c1.91,1.624 3.052,2.525 3.052,2.525c-2.27,-2.412 -5.471,-6.019 -9.077,-10.337c-0.515,-0.617 -1.039,-1.249 -1.569,-1.893c-0.439,-0.534 -0.883,-1.079 -1.331,-1.63c0.383,-0.183 0.844,-0.367 1.405,-0.576c1.452,-0.541 3.259,-1.22 4.465,-2.89c4.192,-5.799 6.463,-10.37 6.463,-17.838c0,-0.292 0.315,-0.642 0.984,-1.268c0.979,-0.916 2.618,-2.495 2.193,-5.007c-1.574,-9.311 0.284,-17.361 1.641,-23.171c0.252,-1.078 0.485,-2.213 0.681,-3.213l8.979,0c1.704,-2 2.517,-6.263 2.882,-10.423c0.034,-0.382 0.024,-0.581 0.05,-0.967c0.043,-0.649 -0.002,-1.301 0.021,-1.953c0.022,-0.621 -0.115,-1.242 -0.115,-1.859c0,-0.004 0,-0.008 0,-0.012c0,-1.877 0.123,-3.718 0.037,-5.424c-0.01,-0.19 0.136,-0.378 0.126,-0.564c-0.269,-4.84 -0.803,-8.459 -0.803,-8.459c2.413,-3.366 4.352,-6.521 5.882,-9.477c0.139,-0.269 0.275,-0.536 0.407,-0.801c0.794,-1.592 1.468,-3.125 2.032,-4.601c0.094,-0.246 0.185,-0.49 0.273,-0.733c0.967,-2.671 1.571,-5.15 1.875,-7.449c0.055,-0.418 0.101,-0.83 0.136,-1.236c0.054,-0.609 0.086,-1.205 0.098,-1.788c0.004,-0.194 0.006,-0.387 0.005,-0.579c-0.002,-0.751 -0.038,-1.48 -0.104,-2.187c-0.018,-0.194 -0.038,-0.387 -0.061,-0.578c-0.042,-0.355 -0.092,-0.704 -0.15,-1.047c-0.058,-0.344 -0.123,-0.682 -0.195,-1.014c-0.108,-0.499 -0.232,-0.986 -0.371,-1.46c-0.092,-0.316 -0.191,-0.628 -0.296,-0.933c-0.052,-0.153 -0.106,-0.305 -0.162,-0.455c-0.166,-0.451 -0.346,-0.89 -0.538,-1.318c-0.128,-0.285 -0.261,-0.565 -0.399,-0.84c-0.069,-0.137 -0.139,-0.274 -0.211,-0.409c-0.143,-0.27 -0.291,-0.535 -0.443,-0.794c-0.076,-0.13 -0.153,-0.259 -0.232,-0.386c-0.469,-0.765 -0.976,-1.485 -1.511,-2.163c-0.178,-0.226 -0.359,-0.447 -0.543,-0.664c-0.368,-0.433 -0.746,-0.848 -1.132,-1.245c-0.482,-0.496 -0.977,-0.964 -1.477,-1.404c-0.2,-0.176 -0.401,-0.348 -0.603,-0.516s-0.404,-0.331 -0.606,-0.49c-0.202,-0.159 -0.405,-0.314 -0.607,-0.465c-1.012,-0.754 -2.018,-1.406 -2.972,-1.962c-0.191,-0.111 -0.379,-0.219 -0.566,-0.323c-1.769,-0.986 -3.312,-1.638 -4.304,-2.013c-0.104,-0.039 -0.203,-0.076 -0.294,-0.109c-0.551,-0.201 -0.867,-0.293 -0.867,-0.293c2.636,-0.1 5.033,-0.362 7.21,-0.744c0.544,-0.096 1.075,-0.199 1.591,-0.309c0.258,-0.055 0.514,-0.112 0.765,-0.17c0.504,-0.117 0.994,-0.24 1.471,-0.369c0.422,-0.114 0.832,-0.234 1.234,-0.356c1.517,-0.464 2.891,-0.987 4.134,-1.544c0.201,-0.09 0.398,-0.181 0.591,-0.272c0.542,-0.256 1.057,-0.519 1.547,-0.785c0.461,-0.251 0.9,-0.505 1.316,-0.761c0.384,-0.236 0.752,-0.473 1.099,-0.711c0.266,-0.181 0.521,-0.363 0.766,-0.543c0.613,-0.451 1.162,-0.898 1.652,-1.33c0.441,-0.388 0.832,-0.764 1.181,-1.121c0.123,-0.126 0.242,-0.25 0.355,-0.372c0.334,-0.36 0.62,-0.695 0.863,-0.998c0.021,-0.026 0.041,-0.051 0.061,-0.077c0.418,-0.528 0.698,-0.948 0.863,-1.213c0.015,-0.024 0.029,-0.047 0.042,-0.069c0.095,-0.157 0.141,-0.245 0.141,-0.245c3.148,1.135 5.89,2.569 8.233,4.08c0.293,0.189 0.579,0.379 0.86,0.57c1.401,0.955 2.647,1.93 3.738,2.871c0.218,0.188 0.43,0.375 0.636,0.56c0.824,0.74 1.549,1.452 2.176,2.107c0.47,0.492 0.886,0.952 1.247,1.368c0.241,0.278 0.457,0.537 0.649,0.773c0.768,0.944 1.149,1.527 1.149,1.527c0.181,-0.933 0.3,-1.825 0.365,-2.679c0.043,-0.569 0.061,-1.121 0.056,-1.656c-0.007,-0.802 -0.067,-1.568 -0.173,-2.297c-0.212,-1.458 -0.611,-2.774 -1.154,-3.959c-0.271,-0.592 -0.579,-1.156 -0.917,-1.685c-0.226,-0.353 -0.465,-0.699 -0.716,-1.026c-1.508,-1.957 -3.451,-3.457 -5.49,-4.584c-0.34,-0.188 -0.682,-0.395 -1.026,-0.563c-1.203,-0.589 -2.419,-1.121 -3.581,-1.5c-3.984,-1.302 -7.334,-1.62 -7.334,-1.62s-16.784,-10.903 -36.85,-11.903c-0.002,0 -0.005,0 -0.007,0c-0.575,0 -1.146,0 -1.719,0c-0.209,0 -0.418,0 -0.627,0c-0.216,0 -0.432,0.227 -0.647,0.229c-0.235,0.002 -0.47,0.231 -0.704,0.235c-0.216,0.004 -0.432,0.007 -0.648,0.012c-0.233,0.005 -0.466,0.012 -0.699,0.019c-0.216,0.006 -0.432,0.012 -0.647,0.02c-0.233,0.008 -0.465,0.018 -0.698,0.027c-0.215,0.009 -0.43,0.018 -0.645,0.028c-0.231,0.011 -0.462,0.023 -0.693,0.035c-0.215,0.011 -0.43,0.022 -0.644,0.035c-0.231,0.013 -0.46,0.028 -0.69,0.043c-0.214,0.014 -0.428,0.027 -0.642,0.042c-0.228,0.016 -0.455,0.033 -0.682,0.05c-0.215,0.016 -0.43,0.032 -0.644,0.049c-0.226,0.018 -0.452,0.038 -0.678,0.057c-0.213,0.018 -0.427,0.036 -0.64,0.056c-0.224,0.02 -0.448,0.042 -0.672,0.064c-0.214,0.021 -0.428,0.041 -0.642,0.063c-0.219,0.022 -0.438,0.046 -0.656,0.069c-0.216,0.023 -0.432,0.046 -0.648,0.07c-0.216,0.024 -0.431,0.05 -0.646,0.075c-0.216,0.025 -0.433,0.05 -0.648,0.076c-0.213,0.026 -0.425,0.053 -0.637,0.08c-0.216,0.027 -0.433,0.054 -0.648,0.082c-0.208,0.027 -0.414,0.056 -0.621,0.084c-0.219,0.03 -0.438,0.059 -0.656,0.09c-0.199,0.028 -0.397,0.057 -0.595,0.086c-0.224,0.033 -0.448,0.065 -0.671,0.098c-0.189,0.028 -0.377,0.058 -0.566,0.087c-0.23,0.035 -0.46,0.07 -0.688,0.107c-0.174,0.028 -0.346,0.057 -0.519,0.085c-0.242,0.039 -0.485,0.078 -0.726,0.119c-0.138,0.023 -0.274,0.047 -0.412,0.071c-0.274,0.047 -0.548,0.093 -0.82,0.141c-0.058,0.01 -0.115,0.021 -0.172,0.031c-1.478,0.263 -2.928,0.544 -4.345,0.838c-0.077,0.016 -0.155,0.032 -0.233,0.048c-0.28,0.059 -0.558,0.118 -0.836,0.178c-0.108,0.023 -0.216,0.046 -0.323,0.069c-0.261,0.057 -0.52,0.114 -0.779,0.172c-0.122,0.027 -0.245,0.054 -0.367,0.081c-0.251,0.056 -0.499,0.113 -0.748,0.17c-0.126,0.029 -0.253,0.057 -0.378,0.087c-0.248,0.058 -0.494,0.116 -0.739,0.174c-0.123,0.029 -0.247,0.058 -0.369,0.087c-0.243,0.058 -0.483,0.117 -0.723,0.175c-0.123,0.03 -0.248,0.06 -0.371,0.09c-0.233,0.057 -0.463,0.115 -0.694,0.173c-0.128,0.032 -0.257,0.064 -0.385,0.096c-0.225,0.057 -0.447,0.114 -0.669,0.171c-0.129,0.033 -0.26,0.066 -0.388,0.1c-0.221,0.057 -0.44,0.115 -0.658,0.173c-0.126,0.033 -0.253,0.067 -0.378,0.1c-0.217,0.058 -0.432,0.116 -0.646,0.174c-0.124,0.034 -0.248,0.067 -0.371,0.101c-0.213,0.058 -0.424,0.117 -0.635,0.175c-0.121,0.034 -0.242,0.067 -0.362,0.101c-0.206,0.058 -0.41,0.115 -0.613,0.173c-0.123,0.035 -0.247,0.07 -0.369,0.105c-0.198,0.057 -0.394,0.113 -0.589,0.17c-0.122,0.036 -0.245,0.071 -0.367,0.106c-0.195,0.057 -0.388,0.114 -0.581,0.171c-0.116,0.034 -0.233,0.069 -0.348,0.103c-0.194,0.058 -0.385,0.115 -0.576,0.173c-0.112,0.034 -0.225,0.068 -0.336,0.102c-0.188,0.057 -0.375,0.115 -0.56,0.172c-0.11,0.034 -0.219,0.068 -0.328,0.101c-0.182,0.056 -0.362,0.113 -0.541,0.169c-0.11,0.034 -0.219,0.069 -0.328,0.103c-0.174,0.055 -0.346,0.11 -0.518,0.164c-0.109,0.035 -0.217,0.07 -0.325,0.104c-0.169,0.054 -0.336,0.108 -0.502,0.162c-0.103,0.034 -0.206,0.067 -0.308,0.1c-0.168,0.055 -0.334,0.109 -0.498,0.164c-0.097,0.032 -0.193,0.064 -0.288,0.095c-0.165,0.055 -0.327,0.109 -0.488,0.163c-0.091,0.031 -0.182,0.061 -0.273,0.092c-0.16,0.054 -0.318,0.108 -0.474,0.161c-0.089,0.031 -0.178,0.061 -0.267,0.091c-0.15,0.052 -0.299,0.103 -0.445,0.153c-0.092,0.032 -0.183,0.063 -0.273,0.095c-0.141,0.049 -0.28,0.098 -0.418,0.146c-0.089,0.031 -0.176,0.062 -0.263,0.093c-0.136,0.048 -0.272,0.096 -0.404,0.143c-0.084,0.03 -0.166,0.059 -0.248,0.089c-0.13,0.047 -0.259,0.093 -0.386,0.139c-0.082,0.029 -0.162,0.059 -0.242,0.088c-0.123,0.045 -0.245,0.089 -0.365,0.133c-0.078,0.029 -0.155,0.057 -0.232,0.085c-0.117,0.043 -0.232,0.086 -0.345,0.127c-0.074,0.028 -0.146,0.055 -0.219,0.082c-0.112,0.042 -0.223,0.083 -0.331,0.124c-0.068,0.026 -0.134,0.051 -0.201,0.076c-0.105,0.04 -0.21,0.079 -0.311,0.118c-0.065,0.025 -0.128,0.049 -0.192,0.073c-0.1,0.038 -0.2,0.077 -0.297,0.114c-0.058,0.022 -0.114,0.044 -0.171,0.066c-0.094,0.036 -0.188,0.073 -0.277,0.107c-0.057,0.022 -0.112,0.044 -0.168,0.066c-0.084,0.033 -0.169,0.066 -0.249,0.098c-0.058,0.023 -0.112,0.044 -0.168,0.066c-0.072,0.029 -0.146,0.058 -0.214,0.085c-0.057,0.023 -0.11,0.044 -0.164,0.066c-0.063,0.025 -0.127,0.051 -0.187,0.075c-0.053,0.021 -0.101,0.041 -0.151,0.061c-0.057,0.023 -0.115,0.047 -0.169,0.068c-0.048,0.019 -0.091,0.037 -0.137,0.056c-0.048,0.02 -0.097,0.04 -0.142,0.058c-0.053,0.022 -0.102,0.042 -0.151,0.062c-0.031,0.013 -0.064,0.026 -0.092,0.038c-0.05,0.021 -0.095,0.04 -0.141,0.059c-0.024,0.01 -0.051,0.021 -0.073,0.03c-0.04,0.017 -0.074,0.031 -0.109,0.046c-0.021,0.009 -0.046,0.019 -0.065,0.028c-0.207,0.087 -0.314,0.134 -0.314,0.134s-8.729,1.058 -15.934,3.632c-0.144,0.051 -0.288,0.104 -0.43,0.156c-0.714,0.264 -1.411,0.542 -2.08,0.837c-0.134,0.059 -0.267,0.118 -0.398,0.179c-0.921,0.421 -1.784,0.873 -2.56,1.358c-1.205,0.751 -2.289,1.59 -3.266,2.493c-0.163,0.15 -0.322,0.303 -0.479,0.457c-0.313,0.308 -0.615,0.622 -0.905,0.943c-0.58,0.641 -1.115,1.305 -1.608,1.986c-0.456,0.63 -0.874,1.274 -1.261,1.926c-3.014,0.514 -4.638,1.26 -5.47,2.481c-0.487,0.715 -0.599,1.435 -0.58,2.026c-0.066,0.008 -0.137,0.016 -0.212,0.025c-0.135,0.014 -0.264,0.03 -0.395,0.045c4.464,-19.89 33.202,-21.462 33.202,-21.462c69.915,-26.59 96.994,0.356 96.994,0.356c29.261,3.674 21.51,23.751 21.51,23.751c4.896,9.512 9.129,31.996 9.129,31.996c0.732,3.634 3.162,2.27 3.162,2.27c-1.297,5.837 -4.013,7.276 -3.395,11.661c0.618,4.385 13.028,14.686 21.36,23.224c8.327,8.537 1.936,12.931 -0.005,14.568z"/>
   <path id="svg_66" d="m235.76,158.771c-1.527,4.275 -9.742,8.976 -9.742,8.976c-0.079,7.078 -7.513,10.226 -7.513,10.226c6.432,8.226 -5.567,16.42 -6.221,21.065c-0.654,4.646 -4.102,4.867 -9.101,6.168c-4.999,1.301 -4.081,7.563 -4.081,7.563s3.675,-5.837 2.054,1.784c-1.621,7.621 8.107,6.161 8.107,6.161c-2.886,0.02 -0.486,-3.243 -0.486,-3.243c2.394,1.567 6.972,1.784 10.377,1.621c3.405,-0.162 13.689,-4.234 13.689,-4.234c-1.504,-0.115 -4.893,-7.386 -0.987,-12.143c3.906,-4.756 3.443,-6.065 3.078,-8.775c-0.455,-3.377 2.422,-1.197 2.422,-1.197s-0.213,-3.126 -1.824,-3.932c-1.378,-0.689 -2.001,-1.905 -2.001,-2.959c0,0 -2.215,2.432 -4.647,3.299c0,0 1.949,1.958 0.162,5.619c-3.324,6.81 -5.567,-0.216 -5.567,-0.216c-1.567,2.973 -3.001,4.006 -4.81,2.162c-1.809,-1.844 3.264,-9.567 4.967,-11.405c1.703,-1.838 2.411,1.676 2.411,1.676c0.946,-1.38 1.532,-7.765 4.748,-8.694c2.305,-0.666 3.985,-8.395 4.386,-9.06c0.784,-1.297 2.108,-0.865 2.108,-0.865s-0.27,-1.351 -0.917,-1.838c0,0 1.052,-1.297 1.809,-1.729c0.65,-0.371 1.784,-0.568 1.784,-0.568s-0.098,-1.016 -1.241,-2.832c-1.84,-2.917 -2.964,-2.63 -2.964,-2.63z"/>
   <path id="svg_67" d="m82.318,172.341c0,0 -7.477,2.192 -11.092,6.972c-4.568,6.04 -7.999,9.999 -14.593,14.539c-3.342,2.301 -6.918,9.188 -6.918,9.188c6.108,-6.54 8.334,-7.558 10.701,-9.134c5.6,-3.729 10.122,-10.247 13.134,-13.998c3.08,-3.837 8.768,-7.567 8.768,-7.567z"/>
   <path id="svg_68" d="m219.016,112.962c0,0 -2.292,2.471 -4.521,4.081c-2.229,1.609 -10.744,6.656 -11.717,8.926c0,0 8.397,-5.067 10.918,-6.857c4.648,-3.302 5.32,-6.15 5.32,-6.15z"/>
   <path id="svg_69" d="m91.805,215.867c0,0 -2.978,-12.178 1.526,-29.041c0,0 -2.793,5.545 -3.893,12.539c-0.918,5.837 -1.262,10.918 2.367,16.502z"/>
   <path id="svg_70" d="m113.437,90.918c0.51,5.605 3.405,13.539 3.405,13.539c-0.687,-6.608 0,-7.783 -0.649,-15.566c-0.645,-7.743 -11.282,-16.983 -20.915,-20.958c-9.72,-4.011 -24.944,-1.634 -24.944,-1.634c22.889,2.054 25.754,4.108 32.131,8.161s10.489,11.164 10.972,16.458z"/>
   <path id="svg_71" d="m82.795,101.539c5.254,7.721 7.845,17.572 7.845,17.572s0.589,-4.262 -0.341,-9.264c-0.93,-5.002 -10.027,-20.217 -15.812,-22.841c-5.73,-2.599 -16.504,-3.322 -16.504,-3.322c19.62,5.655 19.558,10.134 24.812,17.855z"/>
   <path id="svg_72" d="m76.954,165.639c0,0 -16.106,12.647 -36.536,22.052c0,0 23.024,-5.405 36.536,-22.052z"/>
   <path id="svg_73" d="m98.195,102.998c0.088,4.702 2.756,10.96 2.756,10.96c-0.795,-6.582 0.574,-9.537 0.162,-15.176c-0.702,-9.609 -12.928,-18.318 -17.674,-21.565s-19.998,-5.837 -19.998,-5.837c15.349,3.891 25.192,13.873 28.818,17.187c3.628,3.315 5.856,10.123 5.936,14.431z"/>
   <path id="svg_74" d="m53.363,162.505c-9.161,2.648 -21.16,8.323 -21.16,8.323s18.89,-3.135 39.779,-12.539c0,0 -10.106,1.755 -18.619,4.216z"/>
   <path id="svg_75" d="m78.548,134.51c-16.51,-24.661 -38.4,-25.999 -38.4,-25.999c23.349,10.215 38.4,25.999 38.4,25.999z"/>
   <path id="svg_76" d="m33.338,129.427c0,0 23.187,11.966 41.022,11.836c0,0.001 -15.823,-9.079 -41.022,-11.836z"/>
   <path id="svg_77" d="m74.36,148.56c0,0 -20.025,3.426 -43.292,2.108c0,0 22.295,6.972 43.292,-2.108z"/>
   <path id="svg_78" d="m107.113,67.272c19.391,6.617 13.62,36.212 13.62,36.212c8.431,-22.862 -2.95,-36.051 -12.344,-39.725c-13.542,-5.297 -31.759,-2.756 -31.759,-2.756s11.377,-0.25 30.483,6.269z"/>
   <path id="svg_79" d="m76.932,225.215c0.083,0 0.167,-0.006 0.25,-0.009c-0.106,0.003 -0.212,0.007 -0.318,0.006c0.022,0 0.045,0.003 0.068,0.003z"/>
   <path id="svg_80" d="m58.73,215.334c0.022,0 0.043,0 0.064,0c-0.024,0 -0.048,0 -0.072,0c0.003,-0.001 0.006,0 0.008,0z"/>
   <path id="svg_81" d="m29.803,129.822c0.243,-0.255 0.431,-0.498 0.57,-0.732c-0.139,0.233 -0.326,0.477 -0.57,0.732z"/>
   <path id="svg_82" d="m27.167,131.908c-0.509,0.422 -0.927,0.832 -1.268,1.232c0.341,-0.4 0.759,-0.81 1.268,-1.232z"/>
   <path id="svg_83" d="m29.395,130.213c-0.301,0.266 -0.66,0.545 -1.084,0.836c-0.425,0.292 -0.805,0.578 -1.144,0.859c0.339,-0.281 0.719,-0.568 1.144,-0.859c0.424,-0.292 0.784,-0.57 1.084,-0.836z"/>
   <path id="svg_84" d="m35.792,99.731c0.492,-0.358 1.077,-0.739 1.764,-1.146c-0.687,0.407 -1.271,0.788 -1.764,1.146z"/>
   <path id="svg_85" d="m37.556,98.584c1.031,-0.611 2.296,-1.281 3.834,-2.018c-1.537,0.738 -2.802,1.407 -3.834,2.018z"/>
  </g>
 </g>
</svg>